<svg width="18" height="16" viewBox="0 0 18 16" fill="none" xmlns="http://www.w3.org/2000/svg">
<path d="M0.819066 15.7865L16.9742 8.44695C17.0671 8.39391 17.1443 8.31712 17.198 8.22438C17.2517 8.13164 17.28 8.02627 17.28 7.91898C17.28 7.81169 17.2517 7.70631 17.198 7.61358C17.1443 7.52084 17.0671 7.44404 16.9742 7.39101L0.819066 0.0514785C0.725592 0.00903218 0.622543 -0.00762526 0.520528 0.00322146C0.418513 0.0140682 0.321221 0.052027 0.23867 0.113189C0.15612 0.174351 0.091292 0.256506 0.0508665 0.351194C0.0104395 0.445881 -0.00412285 0.549679 0.00867348 0.651899L0.741309 6.50773L1.0532 6.78451L11.0017 7.53417C11.0981 7.54213 11.188 7.58621 11.2535 7.65766C11.319 7.72911 11.3554 7.8227 11.3554 7.91985C11.3554 8.01699 11.319 8.11058 11.2535 8.18203C11.188 8.25348 11.0981 8.29756 11.0017 8.30552L1.06616 9.05518L0.731806 9.33977L0.0043531 15.1887C0.0013813 15.2125 -6.06537e-05 15.2366 3.41034e-05 15.2607C7.9422e-05 15.3576 0.0243262 15.453 0.0705567 15.538C0.116786 15.6231 0.183522 15.6952 0.264659 15.7477C0.345794 15.8002 0.43874 15.8314 0.534991 15.8385C0.631243 15.8455 0.727725 15.8283 0.81561 15.7882L0.819066 15.7865Z" fill="#2A82F0"/>
</svg>
